<svg width="40" height="40" viewBox="0 0 40 40" fill="none" xmlns="http://www.w3.org/2000/svg">
<path d="M27.2165 16.3636H28.1818C29.186 16.3636 30 17.1777 30 18.1818V21.8182C30 22.8224 29.186 23.6364 28.1818 23.6364H27.2165C26.7691 27.2239 23.7087 30 20 30V28.1818C23.0125 28.1818 25.4545 25.7397 25.4545 22.7273V17.2727C25.4545 14.2603 23.0125 11.8182 20 11.8182C16.9875 11.8182 14.5455 14.2603 14.5455 17.2727V23.6364H11.8182C10.814 23.6364 10 22.8224 10 21.8182V18.1818C10 17.1777 10.814 16.3636 11.8182 16.3636H12.7835C13.2309 12.7761 16.2913 10 20 10C23.7087 10 26.7691 12.7761 27.2165 16.3636ZM11.8182 18.1818V21.8182H12.7273V18.1818H11.8182ZM27.2727 18.1818V21.8182H28.1818V18.1818H27.2727ZM16.1449 23.4408L17.1087 21.8988C17.9469 22.4238 18.938 22.7273 20 22.7273C21.062 22.7273 22.0531 22.4238 22.8913 21.8988L23.8551 23.4408C22.7375 24.1408 21.416 24.5455 20 24.5455C18.584 24.5455 17.2626 24.1408 16.1449 23.4408Z" fill="#444444"/>
</svg>
