<svg width="16" height="17" viewBox="0 0 16 17" fill="none" xmlns="http://www.w3.org/2000/svg">
<path d="M8.49765 11.5678L8.51052 11.5559L8.52206 11.5427C8.598 11.4559 8.66811 11.3561 8.71844 11.2232C8.76362 11.1103 8.7932 10.9823 8.7932 10.8478C8.7932 10.7116 8.76289 10.5821 8.71677 10.4682C8.66992 10.3525 8.60446 10.2471 8.52206 10.1529L8.51052 10.1397L8.49765 10.1277C8.40587 10.0427 8.30239 9.97445 8.18776 9.92529C7.94769 9.82235 7.67052 9.82235 7.43045 9.92529C7.31582 9.97445 7.21234 10.0427 7.12056 10.1277L7.10769 10.1397L7.09615 10.1529C7.01375 10.2471 6.94829 10.3525 6.90144 10.4682C6.85532 10.5821 6.82501 10.7116 6.82501 10.8478C6.82501 10.9823 6.85459 11.1103 6.89977 11.2232C6.9501 11.356 7.02021 11.4559 7.09615 11.5427L7.10769 11.5559L7.12056 11.5678C7.21234 11.6528 7.31582 11.7211 7.43045 11.7703C7.54317 11.8186 7.67242 11.8508 7.80911 11.8508C7.94579 11.8508 8.07504 11.8186 8.18776 11.7703C8.30239 11.7211 8.40587 11.6528 8.49765 11.5678ZM1.63485 8.16894C1.63485 4.65384 4.41647 1.80517 7.80911 1.80517C11.2017 1.80517 13.9834 4.65384 13.9834 8.16894C13.9834 11.684 11.2017 14.5327 7.80911 14.5327C4.41647 14.5327 1.63485 11.684 1.63485 8.16894ZM7.80911 4.65448C7.34924 4.65448 6.9877 5.04051 6.9877 5.4901L6.9877 8.83865C6.9877 9.28824 7.34924 9.67427 7.80911 9.67427C8.26897 9.67427 8.63051 9.28824 8.63051 8.83865L8.63051 5.4901C8.63051 5.04051 8.26897 4.65448 7.80911 4.65448Z" fill="#D64751" stroke="#D64751" stroke-width="0.666667"/>
</svg>
