<svg width="123" height="24" viewBox="0 0 123 24" fill="none" xmlns="http://www.w3.org/2000/svg">
<rect width="123" height="24" rx="12" fill="#FEF2F2"/>
<path d="M12.6962 15.3878L12.7093 15.376L12.721 15.363C12.7986 15.2768 12.8708 15.1771 12.9227 15.044C12.9692 14.9309 12.9999 14.8022 12.9999 14.6667C12.9999 14.5294 12.9685 14.3992 12.9209 14.2851C12.8726 14.1692 12.8053 14.064 12.721 13.9703L12.7093 13.9573L12.6962 13.9456C12.6026 13.8613 12.4974 13.794 12.3815 13.7456L12.2533 14.0533L12.3815 13.7456C12.1394 13.6448 11.8604 13.6448 11.6184 13.7456L11.7466 14.0533L11.6184 13.7456C11.5024 13.794 11.3973 13.8613 11.3036 13.9456L11.2906 13.9573L11.2788 13.9703C11.1945 14.064 11.1272 14.1692 11.0789 14.2851C11.0314 14.3992 10.9999 14.5294 10.9999 14.6667C10.9999 14.8022 11.0306 14.9309 11.0771 15.044C11.1291 15.1771 11.2012 15.2768 11.2788 15.363L11.2906 15.376L11.3036 15.3878C11.3973 15.4721 11.5024 15.5394 11.6184 15.5877C11.7325 15.6352 11.8627 15.6667 11.9999 15.6667C12.1372 15.6667 12.2674 15.6352 12.3815 15.5877C12.4974 15.5394 12.6026 15.4721 12.6962 15.3878ZM5.66659 12C5.66659 8.51076 8.51068 5.66667 11.9999 5.66667C15.4892 5.66667 18.3333 8.51076 18.3333 12C18.3333 15.4892 15.4892 18.3333 11.9999 18.3333C8.51068 18.3333 5.66659 15.4892 5.66659 12ZM11.9999 8.5C11.5425 8.5 11.1666 8.87591 11.1666 9.33333L11.1666 12.6667C11.1666 13.1241 11.5425 13.5 11.9999 13.5C12.4573 13.5 12.8333 13.1241 12.8333 12.6667L12.8333 9.33333C12.8333 8.87591 12.4573 8.5 11.9999 8.5Z" fill="#D64751" stroke="#D64751" stroke-width="0.666667"/>
<path d="M27.08 7.4C28.772 7.4 29.996 8.372 29.996 9.776C29.996 11.156 28.772 12.152 27.08 12.152C25.4 12.152 24.176 11.156 24.176 9.776C24.176 8.372 25.4 7.4 27.08 7.4ZM27.08 8.696C26.276 8.696 25.7 9.08 25.7 9.776C25.7 10.46 26.276 10.844 27.08 10.844C27.896 10.844 28.472 10.46 28.472 9.776C28.472 9.08 27.896 8.696 27.08 8.696ZM26.336 13.256H27.932V17.732H26.336V13.256ZM31.196 6.956H32.78V18.068H31.196V6.956ZM23.708 14.096L23.516 12.8C25.46 12.8 28.208 12.776 30.56 12.416L30.668 13.58C28.256 14.06 25.628 14.084 23.708 14.096ZM42.2231 6.956H43.8191V13.664H42.2231V6.956ZM40.8311 10.208H42.8711V11.504H40.8311V10.208ZM36.4151 14.132H43.8191V17.948H36.4151V14.132ZM42.2591 15.392H37.9871V16.688H42.2591V15.392ZM34.5551 7.916H41.0471V9.176H34.5551V7.916ZM37.8071 9.536C39.3551 9.536 40.4591 10.364 40.4591 11.54C40.4591 12.728 39.3551 13.532 37.8071 13.532C36.2591 13.532 35.1431 12.728 35.1431 11.54C35.1431 10.364 36.2591 9.536 37.8071 9.536ZM37.8071 10.724C37.1231 10.724 36.6671 11 36.6671 11.54C36.6671 12.08 37.1231 12.368 37.8071 12.368C38.4791 12.368 38.9351 12.08 38.9351 11.54C38.9351 11 38.4791 10.724 37.8071 10.724ZM37.0031 6.86H38.5991V8.816H37.0031V6.86ZM50.0341 8.024H51.5701C51.5701 11.444 50.6581 14.36 46.4821 16.436L45.6421 15.2C49.0621 13.496 50.0341 11.36 50.0341 8.216V8.024ZM46.3021 8.024H50.8141V9.284H46.3021V8.024ZM50.0101 10.748V11.972L45.9421 12.332L45.7381 10.988L50.0101 10.748ZM53.2141 6.956H54.8221V18.068H53.2141V6.956ZM59.2852 13.22H60.8812V17.732H59.2852V13.22ZM64.4092 6.956H66.0172V18.068H64.4092V6.956ZM56.7532 13.892L56.5612 12.596C58.6252 12.596 61.3492 12.584 63.7132 12.26L63.7972 13.424C61.3732 13.856 58.7812 13.892 56.7532 13.892ZM62.1892 14.432H64.7332V15.632H62.1892V14.432ZM60.1612 7.412C61.7932 7.412 62.9812 8.348 62.9812 9.692C62.9812 11.048 61.7932 11.972 60.1612 11.972C58.5052 11.972 57.3292 11.048 57.3292 9.692C57.3292 8.348 58.5052 7.412 60.1612 7.412ZM60.1612 8.612C59.3692 8.612 58.8172 9.02 58.8172 9.692C58.8172 10.376 59.3692 10.76 60.1612 10.76C60.9292 10.76 61.4812 10.376 61.4812 9.692C61.4812 9.02 60.9292 8.612 60.1612 8.612ZM68.8123 12.08H76.6243V13.352H68.8123V12.08ZM67.6483 15.428H77.7043V16.736H67.6483V15.428ZM68.8123 7.868H76.5403V9.164H70.3963V12.608H68.8123V7.868ZM90.2857 12.056L90.0097 13.412H91.5217V14.624H89.7817L89.3257 17H88.0417L88.4977 14.624H87.3577L86.9137 17H85.6537L86.0857 14.624H84.6937V13.412H86.3137L86.5897 12.056H85.1137V10.832H86.8057L87.2617 8.444H88.5457L88.0897 10.832H89.2537L89.7097 8.444H90.9697L90.5137 10.832H91.9177V12.056H90.2857ZM87.5857 13.412H88.7377L89.0137 12.056H87.8617L87.5857 13.412ZM93.0755 11.252H93.9995C96.2315 11.252 97.4675 11.228 98.9555 11L99.0875 12.236C97.5875 12.464 96.2675 12.488 93.9995 12.488H93.0755V11.252ZM93.0755 7.4H98.2955V8.636H94.6715V12.008H93.0755V7.4ZM94.1795 9.32H98.0555V10.508H94.1795V9.32ZM99.8195 6.956H101.416V12.656H99.8195V6.956ZM100.768 9.128H102.88V10.412H100.768V9.128ZM94.0715 13.124H101.416V16.088H95.6795V17.42H94.0955V14.96H99.8435V14.336H94.0715V13.124ZM94.0955 16.784H101.74V17.996H94.0955V16.784ZM108.627 8.408H111.915V9.68H108.627V8.408ZM108.627 10.868H111.915V12.152H108.627V10.868ZM106.779 7.544C108.435 7.544 109.707 8.696 109.707 10.268C109.707 11.84 108.435 12.992 106.779 12.992C105.111 12.992 103.839 11.84 103.839 10.268C103.839 8.696 105.111 7.544 106.779 7.544ZM106.779 8.9C105.963 8.9 105.363 9.392 105.363 10.268C105.363 11.132 105.963 11.648 106.779 11.648C107.595 11.648 108.195 11.132 108.195 10.268C108.195 9.392 107.595 8.9 106.779 8.9ZM111.411 6.956H113.007V13.46H111.411V6.956ZM109.239 13.688C111.579 13.688 113.043 14.504 113.043 15.884C113.043 17.264 111.579 18.068 109.239 18.068C106.899 18.068 105.435 17.264 105.435 15.884C105.435 14.504 106.899 13.688 109.239 13.688ZM109.239 14.924C107.787 14.924 107.007 15.236 107.007 15.884C107.007 16.532 107.787 16.844 109.239 16.844C110.703 16.844 111.471 16.532 111.471 15.884C111.471 15.236 110.703 14.924 109.239 14.924Z" fill="#E54C60"/>
</svg>
