<svg width="26" height="25" viewBox="0 0 26 25" fill="none" xmlns="http://www.w3.org/2000/svg">
<g clip-path="url(#clip0_20_4312)">
<path d="M19.092 5.6836C19.4825 6.07413 19.4825 6.70729 19.092 7.09782L14.1429 12.0469L19.092 16.9973C19.4825 17.3878 19.4825 18.021 19.092 18.4115C18.7015 18.802 18.0683 18.802 17.6778 18.4115L12.7287 13.4611L7.77828 18.4115C7.38776 18.802 6.75459 18.8021 6.36407 18.4115C5.97354 18.021 5.97354 17.3878 6.36407 16.9973L11.3145 12.0469L6.36407 7.09781C5.97355 6.70729 5.97355 6.07412 6.36407 5.6836C6.7546 5.29307 7.38776 5.29307 7.77829 5.6836L12.7287 10.6326L17.6778 5.6836C18.0683 5.29308 18.7015 5.29308 19.092 5.6836Z" fill="#22215B"/>
</g>
<defs>
<clipPath id="clip0_20_4312">
<rect width="25.6544" height="24.1096" fill="white" transform="translate(0 0.319641)"/>
</clipPath>
</defs>
</svg>
