<svg width="20" height="20" viewBox="0 0 20 20" fill="none" xmlns="http://www.w3.org/2000/svg">
<path d="M5.0498 5.0498H5.0598M8.51177 1H5.8C4.11984 1 3.27976 1 2.63803 1.32698C2.07354 1.6146 1.6146 2.07354 1.32698 2.63803C1 3.27976 1 4.11984 1 5.8V8.51177C1 9.24555 1 9.61243 1.08289 9.9577C1.15638 10.2638 1.27759 10.5564 1.44208 10.8249C1.6276 11.1276 1.88703 11.387 2.40589 11.9059L7.10589 16.6059C8.29393 17.7939 8.88797 18.388 9.57295 18.6105C10.1755 18.8063 10.8245 18.8063 11.4271 18.6105C12.112 18.388 12.7061 17.7939 13.8941 16.6059L16.6059 13.8941C17.7939 12.7061 18.388 12.112 18.6105 11.4271C18.8063 10.8245 18.8063 10.1755 18.6105 9.57295C18.388 8.88797 17.7939 8.29393 16.6059 7.10589L11.9059 2.40589C11.387 1.88703 11.1276 1.6276 10.8249 1.44208C10.5564 1.27759 10.2638 1.15638 9.9577 1.08289C9.61243 1 9.24555 1 8.51177 1ZM5.5498 5.0498C5.5498 5.32595 5.32595 5.5498 5.0498 5.5498C4.77366 5.5498 4.5498 5.32595 4.5498 5.0498C4.5498 4.77366 4.77366 4.5498 5.0498 4.5498C5.32595 4.5498 5.5498 4.77366 5.5498 5.0498Z" stroke="#DDDDDD" stroke-width="2" stroke-linecap="round" stroke-linejoin="round"/>
</svg>
