<svg width="19" height="19" viewBox="0 0 19 19" fill="none" xmlns="http://www.w3.org/2000/svg">
<path d="M13.0075 0H5.32583C1.98917 0 0 1.98917 0 5.32583V12.9983C0 16.3442 1.98917 18.3333 5.32583 18.3333H12.9983C16.335 18.3333 18.3242 16.3442 18.3242 13.0075V5.32583C18.3333 1.98917 16.3442 0 13.0075 0ZM13.5483 7.05833L8.35083 12.2558C8.2225 12.3842 8.04833 12.4575 7.865 12.4575C7.68167 12.4575 7.5075 12.3842 7.37917 12.2558L4.785 9.66167C4.51917 9.39583 4.51917 8.95583 4.785 8.69C5.05083 8.42417 5.49083 8.42417 5.75667 8.69L7.865 10.7983L12.5767 6.08667C12.8425 5.82083 13.2825 5.82083 13.5483 6.08667C13.8142 6.3525 13.8142 6.78333 13.5483 7.05833Z" fill="#49475F"/>
</svg>
