<svg width="24" height="24" viewBox="0 0 24 24" fill="none" xmlns="http://www.w3.org/2000/svg">
<path fill-rule="evenodd" clip-rule="evenodd" d="M11.7501 5C12.2363 5 12.6305 5.39418 12.6305 5.88043V17.6196C12.6305 18.1058 12.2363 18.5 11.7501 18.5C11.2638 18.5 10.8696 18.1058 10.8696 17.6196V5.88043C10.8696 5.39418 11.2638 5 11.7501 5Z" fill="#242533"/>
<path fill-rule="evenodd" clip-rule="evenodd" d="M5.25787 11.1275C5.6017 10.7836 6.15917 10.7836 6.503 11.1275L11.75 16.3745L16.997 11.1275C17.3408 10.7836 17.8983 10.7836 18.2421 11.1275C18.586 11.4713 18.586 12.0288 18.2421 12.3726L12.3726 18.2422C12.0287 18.586 11.4713 18.586 11.1274 18.2422L5.25787 12.3726C4.91404 12.0288 4.91404 11.4713 5.25787 11.1275Z" fill="#242533"/>
</svg>
